<?xml version="1.0" encoding="utf-8"?>
<!-- Generator: Adobe Illustrator 21.1.0, SVG Export Plug-In . SVG Version: 6.00 Build 0)  -->
<svg version="1.1" id="Layer_1" xmlns="http://www.w3.org/2000/svg" xmlns:xlink="http://www.w3.org/1999/xlink" x="0px" y="0px"
	 viewBox="0 0 262 40" style="enable-background:new 0 0 262 40;" xml:space="preserve">
<style type="text/css">
	.st0{fill:#FFFFFF;}
	.st1{fill:#FFFFFF;stroke:#FFFFFF;stroke-width:0.5989;stroke-miterlimit:10;}
	.st2{fill:#FFF6F3;}
</style>
<g>
	<g>
		<g>
			<g>
				<g>
					<path class="st0" d="M52.5,3.2h7.8V3.1l-2.3-2H46.1c0,0-3.5-0.3-5.8,3.7c-2.3-4-5.8-3.7-5.8-3.7h-12l-2.3,2.1v0.1h7.7
						c4.4,0,8.1,3.6,8.1,8.1v15.5c0,4.4-3.6,8.1-8.1,8.1h-6.6l1.2,0.8h12.1c4.4,0.1,5.7,3.4,5.7,3.4s1.3-3.3,5.7-3.4h12l1.2-0.8
						h-6.7c-4.4,0-8.1-3.6-8.1-8.1V11.2C44.4,6.8,48,3.2,52.5,3.2z"/>
				</g>
			</g>
		</g>
		<g>
			<path class="st1" d="M67.9,34.9H52.5c-4.5,0-8.2-3.7-8.2-8.2V11.2C44.3,6.7,48,3,52.5,3H68c4.5,0,8.2,3.7,8.2,8.2v15.5
				C76.1,31.2,72.5,34.9,67.9,34.9z M52.5,3.3c-4.4,0-7.9,3.5-7.9,7.9v15.5c0,4.4,3.5,7.9,7.9,7.9H68c4.4,0,7.9-3.5,7.9-7.9V11.2
				c0-4.4-3.5-7.9-7.9-7.9C68,3.3,52.5,3.3,52.5,3.3z"/>
		</g>
		<g>
			<path class="st1" d="M27.9,34.9H12.5c-4.5,0-8.2-3.7-8.2-8.2V11.2C4.3,6.7,7.9,3,12.5,3H28c4.5,0,8.2,3.7,8.2,8.2v15.5
				C36.1,31.2,32.5,34.9,27.9,34.9z M12.5,3.3c-4.4,0-7.9,3.5-7.9,7.9v15.5c0,4.4,3.5,7.9,7.9,7.9H28c4.4,0,7.9-3.5,7.9-7.9V11.2
				c0-4.4-3.5-7.9-7.9-7.9C28,3.3,12.5,3.3,12.5,3.3z"/>
		</g>
		<g>
			<g>
				<g>
					<path class="st0" d="M65.2,10.4h-8.9c-2.2,0-4,1.8-4,4v8.9c0,2.2,1.8,4,4,4h8.9c2.2,0,4-1.8,4-4v-8.9
						C69.2,12.2,67.4,10.4,65.2,10.4z M66.4,22.1c0,1.2-1,2.3-2.3,2.3h-6.7c-1.2,0-2.3-1-2.3-2.3v-6.7c0-1.2,1-2.3,2.3-2.3h6.7
						c1.2,0,2.3,1,2.3,2.3V22.1z"/>
				</g>
			</g>
		</g>
		<g>
			<g>
				<g>
					<path class="st0" d="M23.6,10.5h-8c-2.4,0-4.3,1.9-4.3,4.3v0.6H14c0-1.2,1-2.1,2.1-2.1H23c1.2,0,2.1,1,2.1,2.1V17
						c-0.5-0.2-1-0.3-1.6-0.3h-8c-2.4,0-4.3,1.9-4.3,4.3v2l0,0c0.1,2.3,2,4.2,4.3,4.2h8c2.3,0,4.2-1.8,4.3-4.2l0,0v-8.2
						C27.9,12.5,26,10.5,23.6,10.5z M25.1,22.3c0,1.2-1,2.1-2.1,2.1h-6.8c-1.2,0-2.1-1-2.1-2.1v-0.6c0-1.2,1-2.1,2.1-2.1H23
						c1.2,0,2.1,1,2.1,2.1V22.3z"/>
				</g>
			</g>
		</g>
	</g>
	<g>
		<path class="st2" d="M99.4,11.9c-0.3-0.4-0.8-0.6-1.3-0.8c-0.6-0.1-1.2-0.2-2-0.2h-2.2l0,0h-3.4c-0.8,0-1.5,0.1-2,0.2
			c-0.6,0.1-1,0.4-1.3,0.8c-0.3,0.4-0.6,0.9-0.7,1.5c-0.1,0.5-0.2,1-0.2,1.6h3.5c0-0.8,0.2-1.4,0.5-1.7c0.3-0.4,0.8-0.6,1.4-0.6h3
			c0.8,0,1.4,0.2,1.7,0.6c0.3,0.4,0.5,1.2,0.5,2.2v2.1h-7.2c-1.3,0-2.2,0.4-2.8,1.3c-0.6,0.8-0.8,2.1-0.8,3.7c0,1.5,0.3,2.8,0.9,3.6
			c0.6,0.9,1.5,1.3,2.7,1.3h10.6V15.8c0-1-0.1-1.8-0.2-2.4C100,12.7,99.8,12.2,99.4,11.9z M96.9,25.7h-5c-0.9,0-1.6-0.3-1.9-0.8
			c-0.4-0.5-0.6-1.4-0.6-2.5c0-1.2,0.2-2,0.7-2.5c0.4-0.5,1.2-0.7,2.2-0.7h4.6C96.9,19.2,96.9,25.7,96.9,25.7z"/>
		<path class="st2" d="M110,6.6h-3.5v4.3h-4.3v1.7h4.3v10.7c0,0.8,0.1,1.5,0.2,2s0.3,1,0.6,1.3c0.3,0.3,0.7,0.5,1.3,0.6
			c0.6,0.1,1.3,0.2,2.2,0.2h2.5v-1.7c-0.7,0-1.3,0-1.8-0.1c-0.4-0.1-0.8-0.2-1-0.4c-0.2-0.2-0.4-0.5-0.4-0.9
			c-0.1-0.4-0.1-0.9-0.1-1.5V12.6h5.7v-1.7H110V6.6z"/>
		<path class="st2" d="M130.9,11.9c-0.3-0.4-0.8-0.6-1.3-0.8c-0.5-0.1-1.2-0.2-2-0.2h-6.3V5.6h-3.5v21.8h3.5V12.6h4.9
			c0.8,0,1.3,0.3,1.7,0.8c0.3,0.5,0.5,1.4,0.5,2.7v11.4h3.5V15.7c0-0.9-0.1-1.7-0.2-2.4C131.4,12.7,131.2,12.2,130.9,11.9z"/>
		<path class="st2" d="M144.1,10.9h-6.3c-0.8,0-1.4,0.1-1.9,0.3s-1,0.5-1.3,0.9s-0.6,0.9-0.7,1.6c-0.2,0.7-0.2,1.5-0.2,2.5v6.1
			c0,1,0.1,1.9,0.2,2.5c0.2,0.7,0.4,1.2,0.7,1.6s0.8,0.7,1.3,0.8c0.5,0.2,1.2,0.2,1.9,0.2h8.2v-1.7h-6.1c-0.5,0-1,0-1.3-0.1
			c-0.4-0.1-0.6-0.3-0.9-0.5c-0.2-0.2-0.4-0.6-0.5-1s-0.1-1-0.1-1.7v-1.8h7c2.3,0,3.5-1.6,3.5-4.7C147.6,12.5,146.4,10.9,144.1,10.9
			z M144.6,17.2c-0.1,0.4-0.2,0.7-0.4,0.9c-0.2,0.2-0.4,0.4-0.7,0.5s-0.6,0.1-1,0.1h-5.4V16c0-1.3,0.2-2.2,0.5-2.7
			c0.4-0.5,0.9-0.8,1.7-0.8h3.2c0.8,0,1.4,0.2,1.7,0.7s0.5,1.3,0.5,2.5C144.7,16.4,144.6,16.9,144.6,17.2z"/>
		<path class="st2" d="M162.4,11.9c-0.3-0.4-0.8-0.6-1.3-0.8s-1.2-0.2-2-0.2h-9.7v16.6h3.4V12.6h4.9c0.8,0,1.3,0.2,1.7,0.7
			s0.5,1.4,0.5,2.7v11.4h3.4V15.7c0-0.9-0.1-1.7-0.2-2.3C163,12.8,162.7,12.3,162.4,11.9z"/>
		<path class="st2" d="M178.3,11.9c-0.3-0.4-0.8-0.6-1.3-0.8c-0.6-0.1-1.2-0.2-2-0.2h-7.7v1.7h6.3c0.8,0,1.4,0.2,1.7,0.6
			c0.3,0.4,0.5,1.2,0.5,2.2v2.1h-7.2c-1.3,0-2.2,0.4-2.8,1.3c-0.6,0.8-0.8,2.1-0.8,3.7c0,1.5,0.3,2.8,0.9,3.6
			c0.6,0.9,1.5,1.3,2.7,1.3h10.6V15.8c0-1-0.1-1.8-0.2-2.4C178.9,12.7,178.7,12.2,178.3,11.9z M175.8,25.7h-5c-0.9,0-1.6-0.3-2-0.8
			s-0.6-1.4-0.6-2.5c0-1.2,0.2-2,0.7-2.5c0.4-0.5,1.2-0.7,2.2-0.7h4.6v6.5H175.8z"/>
		<path class="st2" d="M194.3,19.2c-0.3-0.4-0.7-0.8-1.1-1c-0.5-0.3-1-0.4-1.7-0.4h-6.2c-0.4,0-0.8-0.2-1.1-0.7s-0.4-1.1-0.4-1.8
			s0.1-1.4,0.4-1.9c0.3-0.5,0.6-0.8,1.1-0.8h8.6v-1.7h-9.1c-1.4,0-2.4,0.4-3.1,1.3c-0.6,0.8-1,2-1,3.6c0,0.6,0.1,1.1,0.2,1.6
			c0.2,0.5,0.4,1,0.7,1.4s0.7,0.8,1.1,1c0.4,0.3,0.9,0.4,1.5,0.4h6.3c0.3,0,0.6,0.1,0.8,0.2s0.4,0.3,0.5,0.6
			c0.1,0.2,0.2,0.5,0.3,0.8s0.1,0.7,0.1,1c0,0.4,0,0.7-0.1,1.1c-0.1,0.3-0.2,0.6-0.3,0.9c-0.2,0.3-0.3,0.5-0.5,0.6
			c-0.2,0.2-0.4,0.2-0.7,0.2h-9.2v1.7h10.4c1.2,0,2.1-0.4,2.6-1.3c0.6-0.9,0.8-2.1,0.8-3.7c0-0.6-0.1-1.2-0.2-1.7
			C194.8,20.1,194.6,19.7,194.3,19.2z"/>
		<polygon class="st2" points="237.8,25.6 236.2,15.3 234.4,15.3 232.6,25.6 231.1,10.9 227.6,10.9 230.2,27.4 234.2,27.4 
			235.3,19.6 236.4,27.4 240.3,27.4 242.9,10.9 239.4,10.9 		"/>
		<polygon class="st2" points="252.7,25.7 252.7,5.6 244.3,5.6 244.3,7.4 249.2,7.4 249.2,25.7 244.3,25.7 244.3,27.4 257.7,27.4 
			257.7,25.7 		"/>
		<path class="st2" d="M221.5,10.9h-9.2c-2,0-3.6,1.6-3.6,3.6v9.2c0,2,1.6,3.6,3.6,3.6h9.2c2,0,3.6-1.6,3.6-3.6v-9.2
			C225.1,12.6,223.5,10.9,221.5,10.9z M221.7,23.6c0,1.1-0.9,2.1-2.1,2.1h-5.5c-1.1,0-2.1-0.9-2.1-2.1v-8.9c0-1.1,0.9-2.1,2.1-2.1
			h5.5c1.1,0,2.1,0.9,2.1,2.1V23.6z"/>
	</g>
</g>
</svg>
