<?xml version="1.0" encoding="iso-8859-1"?>
<!-- Generator: Adobe Illustrator 19.0.0, SVG Export Plug-In . SVG Version: 6.00 Build 0)  -->
<svg version="1.1" id="Capa_1" xmlns="http://www.w3.org/2000/svg" xmlns:xlink="http://www.w3.org/1999/xlink" x="0px" y="0px"
	 viewBox="0 0 496 496" style="enable-background:new 0 0 496 496;" xml:space="preserve">
<polygon style="fill:#FFA64D;" points="344,168 344,136 296,136 296,200 248,200 248,120 200,120 200,152 152,152 152,296 200,296 
	248,296 296,296 344,296 392,296 392,168 "/>
<g>
	<path style="fill:#333333;" d="M496,0H48v112h-8c-22.056,0-40,17.944-40,40v256c0,22.056,17.944,40,40,40h72v32H80v16h32h224h32
		v-16h-32v-32h72c22.056,0,40-17.944,40-40v-56h48V0z M480,16v48H64V16H480z M320,480H128v-32h192V480z M408,432h-72H112H40
		c-13.232,0-24-10.768-24-24v-8h416v8C432,421.232,421.232,432,408,432z M432,384H16V152c0-13.232,10.768-24,24-24h8v224h384V384z
		 M64,336V80h416v256H64z"/>
	<rect x="80" y="32" style="fill:#333333;" width="16" height="16"/>
	<rect x="112" y="32" style="fill:#333333;" width="16" height="16"/>
	<rect x="144" y="32" style="fill:#333333;" width="16" height="16"/>
	<path style="fill:#333333;" d="M400,160h-48v-32h-64v64h-32v-80h-64v32h-48v144h-32v16h32h48h16h32h16h32h16h32h16h48h32v-16h-32
		V160z M160,288V160h32v128H160z M208,288V144v-16h32v64v96H208z M256,288v-80h32v80H256z M304,288v-96v-48h32v16v128H304z M352,288
		V176h32v112H352z"/>
	<rect x="448" y="96" style="fill:#333333;" width="16" height="16"/>
	<rect x="448" y="128" style="fill:#333333;" width="16" height="16"/>
	<rect x="448" y="160" style="fill:#333333;" width="16" height="16"/>
	<rect x="448" y="192" style="fill:#333333;" width="16" height="16"/>
	<rect x="448" y="224" style="fill:#333333;" width="16" height="16"/>
</g>
<g>
</g>
<g>
</g>
<g>
</g>
<g>
</g>
<g>
</g>
<g>
</g>
<g>
</g>
<g>
</g>
<g>
</g>
<g>
</g>
<g>
</g>
<g>
</g>
<g>
</g>
<g>
</g>
<g>
</g>
</svg>
